Coordinates
version=1
nRows=26
nColumns=22
inDegrees=yes

Units are S.I. units (second, meters, Newtons, ...)
If the header above contains a line with 'inDegrees', this indicates whether rotational values are in degrees (yes) or radians (no).

endheader
time	pelvis_tilt	pelvis_list	pelvis_rotation	pelvis_tx	pelvis_ty	pelvis_tz	hip_flexion_r	hip_adduction_r	hip_rotation_r	knee_angle_r	ankle_angle_r	subtalar_angle_r	hip_flexion_l	hip_adduction_l	hip_rotation_l	knee_angle_l	ankle_angle_l	subtalar_angle_l	lumbar_extension	lumbar_bending	lumbar_rotation
      0.01000000	     -3.47741942	     -7.09052170	      3.80021764	     -1.09364760	      0.97716584	      0.11411313	     10.25877735	      5.74905112	     -4.93286327	    -17.90149282	     10.34852442	      1.48245253	      6.13355986	     -4.80554509	      8.22266817	     -9.79228541	     10.65280574	     -3.51997250	      2.81164903	      4.56294506	     -6.82373917
      0.02000000	     -3.40589801	     -7.26976573	      3.80525697	     -1.09341591	      0.97749548	      0.11448266	     10.25606752	      5.96253415	     -5.36399788	    -18.11743912	      9.85734154	      1.54685871	      6.07280772	     -5.02776718	      8.24129841	     -9.81467525	     10.66459557	     -3.51145930	      2.77080496	      4.75748795	     -6.84416423
      0.03000000	     -3.34974951	     -7.44210604	      3.79749282	     -1.09317359	      0.97777851	      0.11491046	     10.23706602	      6.17431965	     -5.72852453	    -18.26853127	      9.43062390	      1.57825367	      6.03056075	     -5.24561504	      8.24020748	     -9.84627532	     10.69489001	     -3.48435754	      2.74743553	      4.94572204	     -6.84618131
      0.04000000	     -3.31552748	     -7.56770055	      3.78182680	     -1.09292915	      0.97798729	      0.11536378	     10.19195246	      6.34035236	     -5.98272237	    -18.31842727	      9.12147744	      1.59194396	      6.00605161	     -5.41310606	      8.22087089	     -9.87714960	     10.72227851	     -3.45270182	      2.74523913	      5.08198144	     -6.84204311
      0.05000000	     -3.29356957	     -7.65516480	      3.76746968	     -1.09269413	      0.97812273	      0.11581782	     10.11257277	      6.46893624	     -6.12239861	    -18.26647047	      8.94745249	      1.58315244	      5.99059427	     -5.53847595	      8.21492416	     -9.90663934	     10.75742833	     -3.40814392	      2.75248822	      5.17801705	     -6.82877357
      0.06000000	     -3.29486901	     -7.69575258	      3.74404313	     -1.09247764	      0.97819194	      0.11627618	     10.02273440	      6.54919984	     -6.16386026	    -18.13859599	      8.86291427	      1.57970274	      5.99203598	     -5.61243555	      8.18614739	     -9.92789106	     10.77373715	     -3.37462210	      2.77683749	      5.22115246	     -6.81462176
      0.07000000	     -3.31231365	     -7.70567296	      3.72267134	     -1.09226802	      0.97821099	      0.11672367	      9.92794083	      6.59766888	     -6.14048346	    -17.96515407	      8.86403774	      1.57645057	      6.00304159	     -5.65131034	      8.16997386	     -9.94039149	     10.78898877	     -3.35099402	      2.81699750	      5.23152361	     -6.80893780
      0.08000000	     -3.32995755	     -7.71338786	      3.69923869	     -1.09205676	      0.97821950	      0.11717162	      9.82928938	      6.64278673	     -6.09927465	    -17.77810562	      8.87356015	      1.57672957	      6.00706569	     -5.68950328	      8.14940610	     -9.94113392	     10.80266483	     -3.32426789	      2.85565930	      5.24245438	     -6.79620331
      0.09000000	     -3.32957616	     -7.72651536	      3.66883561	     -1.09181830	      0.97825178	      0.11763497	      9.71150951	      6.69662578	     -6.04981987	    -17.58996743	      8.87609344	      1.58121625	      5.97795352	     -5.73779356	      8.11652213	     -9.92255738	     10.82112920	     -3.27556712	      2.87599724	      5.26198412	     -6.76257379
      0.10000000	     -3.35613926	     -7.71386014	      3.65322474	     -1.09162715	      0.97823805	      0.11807063	      9.64254198	      6.71652523	     -6.00733199	    -17.43759592	      8.91360849	      1.58025191	      5.98433341	     -5.75224712	      8.10918262	     -9.90966023	     10.82102346	     -3.26150268	      2.92002955	      5.25176049	     -6.77151932
      0.11000000	     -3.37255014	     -7.71516021	      3.63035963	     -1.09141923	      0.97823879	      0.11851688	      9.57281544	      6.75325712	     -5.95498719	    -17.30323143	      8.93155376	      1.58090178	      5.97311299	     -5.78438226	      8.10081377	     -9.88759672	     10.82298878	     -3.24433828	      2.95593243	      5.26181903	     -6.76658199
      0.12000000	     -3.38099070	     -7.71756895	      3.60753923	     -1.09120616	      0.97824481	      0.11897066	      9.51246673	      6.79073415	     -5.91197518	    -17.20116136	      8.94508180	      1.57839029	      5.95074902	     -5.81912833	      8.09140318	     -9.86208674	     10.82737395	     -3.22939150	      2.98222730	      5.27427257	     -6.75372267
      0.13000000	     -3.38851833	     -7.71736470	      3.58549626	     -1.09101168	      0.97824333	      0.11943159	      9.46982126	      6.82509632	     -5.87213919	    -17.13053212	      8.96132569	      1.57147909	      5.92788763	     -5.85132295	      8.08671826	     -9.83524694	     10.83101918	     -3.21976880	      3.00207176	      5.28422428	     -6.73903254
      0.14000000	     -3.39318548	     -7.71520867	      3.56428292	     -1.09081318	      0.97823842	      0.11989179	      9.44077318	      6.85713606	     -5.82864319	    -17.09218808	      8.97786036	      1.55987011	      5.90210566	     -5.88139150	      8.08304235	     -9.80967217	     10.83420699	     -3.21434955	      3.01890200	      5.29370433	     -6.71752687
      0.15000000	     -3.40328970	     -7.70512430	      3.55338576	     -1.09061992	      0.97821514	      0.12033135	      9.43094780	      6.87617015	     -5.80407997	    -17.07750999	      9.00287689	      1.55146879	      5.88726678	     -5.90028181	      8.08641212	     -9.79042758	     10.83898423	     -3.21358286	      3.03945206	      5.29458311	     -6.70207196
      0.16000000	     -3.40794321	     -7.69468611	      3.53984810	     -1.09044697	      0.97819000	      0.12076342	      9.43494396	      6.89614405	     -5.74670574	    -17.09856864	      9.03071514	      1.53897969	      5.86755967	     -5.91885907	      8.09658197	     -9.77229958	     10.84018065	     -3.21300185	      3.04872445	      5.29972429	     -6.68923119
      0.17000000	     -3.41358855	     -7.67899406	      3.53070837	     -1.09026753	      0.97815845	      0.12118493	      9.44594573	      6.91063432	     -5.68282427	    -17.13157729	      9.06720269	      1.52428887	      5.84899873	     -5.93107805	      8.10502609	     -9.75276359	     10.84391956	     -3.21300784	      3.05915036	      5.29877526	     -6.67388160
      0.18000000	     -3.41708548	     -7.65890178	      3.52785412	     -1.09008759	      0.97812568	      0.12158490	      9.46400885	      6.91898636	     -5.61138517	    -17.18269962	      9.10530567	      1.50949340	      5.83264392	     -5.93727707	      8.11595081	     -9.73899345	     10.84756444	     -3.21225309	      3.06559262	      5.29439818	     -6.66484851
      0.19000000	     -3.43547096	     -7.61924811	      3.50884216	     -1.08988595	      0.97807479	      0.12199526	      9.50209099	      6.90879769	     -5.51008058	    -17.24984799	      9.17427797	      1.47826827	      5.82303840	     -5.92318025	      8.10912313	     -9.71802301	     10.84910325	     -3.20861210	      3.08987275	      5.26778222	     -6.62295736
      0.20000000	     -3.42897368	     -7.60147841	      3.52283437	     -1.08969564	      0.97805586	      0.12234612	      9.52662790	      6.91557965	     -5.43928907	    -17.33310672	      9.19041186	      1.47007335	      5.80940320	     -5.92848450	      8.12970544	     -9.72164855	     10.85240442	     -3.20512559	      3.08614814	      5.27234245	     -6.64318065
      0.21000000	     -3.44897384	     -7.56685221	      3.51710157	     -1.08948519	      0.97800281	      0.12271741	      9.58861943	      6.90631263	     -5.33580300	    -17.44250411	      9.26162152	      1.44841376	      5.80982317	     -5.91663044	      8.15468193	     -9.71037956	     10.86622959	     -3.19168599	      3.11371776	      5.25784185	     -6.62089233
      0.22000000	     -3.46693890	     -7.53779622	      3.51074226	     -1.08928298	      0.97796285	      0.12309505	      9.66800812	      6.90010930	     -5.24647633	    -17.58233785	      9.29066580	      1.43748465	      5.82014901	     -5.91066394	      8.16909600	     -9.71963329	     10.87304257	     -3.17106474	      3.13668302	      5.25248547	     -6.61530001
      0.23000000	     -3.47888582	     -7.51837198	      3.50537917	     -1.08906637	      0.97793583	      0.12346354	      9.74877750	      6.90184130	     -5.16715372	    -17.73474443	      9.30567266	      1.43621758	      5.82447308	     -5.91479981	      8.18907911	     -9.72901223	     10.88420861	     -3.15004131	      3.15425164	      5.26494148	     -6.61453217
      0.24000000	     -3.49560272	     -7.49925217	      3.48497315	     -1.08884966	      0.97790937	      0.12388074	      9.85118704	      6.90499737	     -5.08699781	    -17.91477510	      9.31492950	      1.44300750	      5.83162793	     -5.92296284	      8.19926740	     -9.73955556	     10.89753868	     -3.12479254	      3.17525738	      5.27589178	     -6.60081952
      0.25000000	     -3.51221166	     -7.48176881	      3.45274513	     -1.08864156	      0.97788573	      0.12432262	      9.96521959	      6.90991256	     -5.00217531	    -18.11167035	      9.31658041	      1.45639519	      5.83761303	     -5.93456409	      8.19850978	     -9.75148850	     10.91275524	     -3.09772670	      3.19236097	      5.29084914	     -6.57834003
      0.26000000	     -3.55109819	     -7.45414741	      3.39331256	     -1.08847600	      0.97783898	      0.12480651	     10.11448517	      6.90665823	     -4.87911793	    -18.32382403	      9.32223241	      1.48469729	      5.87350829	     -5.93585390	      8.15710720	     -9.77893841	     10.92709229	     -3.05213525	      3.22784120	      5.29665892	     -6.54645109
